<svg id="visual" viewBox="0 0 900 600" width="900" height="600" xmlns="http://www.w3.org/2000/svg" xmlns:xlink="http://www.w3.org/1999/xlink" version="1.1"><path d="M854 600L791 533L872 467L818 400L773 333L791 267L827 200L791 133L791 67L836 0L900 0L900 67L900 133L900 200L900 267L900 333L900 400L900 467L900 533L900 600Z" fill="#91df8d"></path><path d="M809 600L728 533L845 467L782 400L746 333L728 267L764 200L737 133L737 67L737 0L837 0L792 67L792 133L828 200L792 267L774 333L819 400L873 467L792 533L855 600Z" fill="#7ed894"></path><path d="M755 600L638 533L773 467L710 400L728 333L656 267L647 200L692 133L719 67L665 0L738 0L738 67L738 133L765 200L729 267L747 333L783 400L846 467L729 533L810 600Z" fill="#6dd19a"></path><path d="M467 600L575 533L566 467L611 400L359 333L431 267L377 200L422 133L449 67L458 0L666 0L720 67L693 133L648 200L657 267L729 333L711 400L774 467L639 533L756 600Z" fill="#5ec99f"></path><path d="M296 600L368 533L386 467L449 400L305 333L314 267L152 200L224 133L359 67L404 0L459 0L450 67L423 133L378 200L432 267L360 333L612 400L567 467L576 533L468 600Z" fill="#51c1a3"></path><path d="M206 600L125 533L206 467L170 400L125 333L143 267L53 200L80 133L134 67L170 0L405 0L360 67L225 133L153 200L315 267L306 333L450 400L387 467L369 533L297 600Z" fill="#47b8a5"></path><path d="M116 600L89 533L134 467L125 400L80 333L116 267L35 200L62 133L71 67L80 0L171 0L135 67L81 133L54 200L144 267L126 333L171 400L207 467L126 533L207 600Z" fill="#41b0a6"></path><path d="M0 600L0 533L0 467L0 400L0 333L0 267L0 200L0 133L0 67L0 0L81 0L72 67L63 133L36 200L117 267L81 333L126 400L135 467L90 533L117 600Z" fill="#3fa7a5"></path></svg>