<svg width="64" height="56" viewBox="0 0 64 56" fill="none" xmlns="http://www.w3.org/2000/svg">
<path d="M44.3924 37.7187C45.4696 38.2858 45.9229 39.4246 45.7745 40.4939C45.5876 41.841 44.9058 42.5926 43.7648 42.8048C44.059 43.1646 44.342 43.5134 44.6279 43.8598C44.9874 44.2953 45.3554 44.7238 45.7082 45.1647C45.9809 45.5057 45.9105 46.0032 45.5703 46.2623C45.2434 46.5111 44.7545 46.4465 44.4989 46.1074C43.7667 45.1357 43.0309 44.1665 42.3187 43.1802C42.1677 42.9711 42.0242 42.8681 41.771 42.8953C41.6096 42.9126 41.4447 42.8985 41.2504 42.8985C41.2504 42.9992 41.2505 43.0871 41.2504 43.1749C41.2497 43.9886 41.2563 44.8024 41.2454 45.6159C41.2398 46.0327 40.9891 46.3279 40.6201 46.4007C40.2965 46.4645 39.9403 46.2995 39.8002 45.9965C39.745 45.8772 39.7169 45.7344 39.7166 45.6022C39.7118 43.1336 39.7118 40.665 39.7142 38.1964C39.7147 37.7215 40.0261 37.4131 40.5061 37.4106C41.3838 37.406 42.2631 37.3785 43.1386 37.4228C43.5544 37.4439 43.9629 37.6084 44.3924 37.7187ZM42.4299 38.7819C42.041 38.7819 41.6522 38.7819 41.2618 38.7819C41.2618 39.7127 41.2618 40.6124 41.2618 41.5252C41.9272 41.5252 42.5817 41.5363 43.2352 41.5169C43.3866 41.5124 43.5541 41.4304 43.6813 41.3385C44.1978 40.9658 44.2661 40.4209 44.1777 39.8498C44.0673 39.1373 43.6398 38.7903 42.9225 38.7821C42.7765 38.7805 42.6305 38.7819 42.4299 38.7819Z" fill="white"/>
<path d="M30.8899 39.0989C31.2725 40.335 31.1201 41.4382 30.1295 42.3097C29.8474 42.5579 29.4588 42.685 29.1069 42.8742C29.4218 43.259 29.7817 43.7005 30.1435 44.1404C30.4214 44.4783 30.7082 44.809 30.979 45.1524C31.2646 45.5146 31.2004 46.0132 30.8492 46.2712C30.5128 46.5183 30.0382 46.4379 29.7653 46.0754C29.0336 45.1036 28.2997 44.1334 27.5843 43.1498C27.4425 42.9548 27.3012 42.8706 27.0677 42.8952C26.8979 42.913 26.7248 42.8987 26.5314 42.8987C26.5314 43.7971 26.5322 44.6726 26.531 45.548C26.5304 45.972 26.3589 46.2437 26.0212 46.3648C25.5578 46.531 25.0671 46.2355 25.005 45.7487C24.9912 45.6404 24.9941 45.5296 24.9941 45.42C24.9936 43.0784 24.9901 40.7369 24.9997 38.3954C25.0006 38.1763 25.0283 37.9169 25.1472 37.7503C25.2634 37.5876 25.511 37.4287 25.7035 37.4255C26.7441 37.4083 27.7902 37.3838 28.8252 37.4709C29.8193 37.5545 30.5076 38.1442 30.8899 39.0989ZM29.4697 40.4179C29.4661 40.2193 29.4867 40.0168 29.4543 39.823C29.3571 39.2408 29.0306 38.8492 28.508 38.8102C27.8568 38.7616 27.1993 38.7985 26.5453 38.7985C26.5453 39.7136 26.5453 40.6143 26.5453 41.535C27.1332 41.535 27.7072 41.5391 28.2811 41.5339C28.9524 41.5278 29.3771 41.1379 29.4697 40.4179Z" fill="white"/>
<path d="M49.3196 44.9291C50.2708 44.9292 51.1949 44.9211 52.1187 44.9324C52.6971 44.9395 53.03 45.4836 52.7587 45.9555C52.6311 46.1774 52.4348 46.3005 52.1753 46.3008C50.7391 46.3024 49.3028 46.3056 47.8666 46.2991C47.4198 46.297 47.1254 45.9682 47.1241 45.4917C47.121 44.4214 47.1231 43.3511 47.1231 42.2808C47.1231 40.9451 47.1226 39.6095 47.1234 38.2739C47.1237 37.7064 47.4152 37.4103 47.9764 37.4098C49.2937 37.4086 50.6112 37.4222 51.9282 37.4022C52.366 37.3956 52.699 37.7021 52.7089 38.1026C52.7187 38.4996 52.3813 38.7813 51.9135 38.7816C50.9255 38.7824 49.9375 38.7819 48.9496 38.7819C48.8605 38.7819 48.7715 38.7819 48.6715 38.7819C48.6715 39.5772 48.6715 40.3503 48.6715 41.1509C49.4807 41.1509 50.2824 41.1539 51.084 41.1493C51.3617 41.1477 51.5858 41.2421 51.7302 41.4812C52.0089 41.9429 51.6969 42.481 51.1253 42.5006C50.5771 42.5194 50.0277 42.505 49.4788 42.5052C49.2152 42.5052 48.9516 42.5052 48.6603 42.5052C48.6603 42.921 48.6603 43.3208 48.6603 43.7206C48.6603 44.1127 48.6603 44.5049 48.6603 44.9291C48.8784 44.9291 49.0854 44.9291 49.3196 44.9291Z" fill="white"/>
<path d="M6.01181 37.4092C6.65871 37.4323 7.29153 37.3827 7.8949 37.4935C9.23937 37.7403 9.96678 38.771 9.91905 40.2177C9.885 41.2495 9.51398 42.1036 8.53566 42.5401C8.10812 42.7308 7.60692 42.7924 7.13238 42.8326C6.56185 42.881 5.9841 42.8441 5.38196 42.8441C5.38196 43.2801 5.38419 43.6972 5.38141 44.1143C5.37781 44.6532 5.3893 45.1933 5.35805 45.7307C5.33453 46.1353 4.99719 46.413 4.60395 46.4117C4.22599 46.4103 3.91918 46.1379 3.86191 45.7469C3.84744 45.648 3.84311 45.5469 3.84307 45.4469C3.84206 43.1062 3.84193 40.7655 3.8425 38.4248C3.84268 37.6662 4.10127 37.4092 4.85973 37.4092C5.23461 37.4092 5.60949 37.4092 6.01181 37.4092ZM6.90725 41.471C7.48937 41.4687 7.98146 41.316 8.22689 40.7169C8.58439 39.8441 8.14327 38.8978 7.27726 38.8073C6.65666 38.7425 6.02381 38.7947 5.39514 38.7947C5.39514 39.6897 5.39514 40.5703 5.39514 41.471C5.89035 41.471 6.3725 41.471 6.90725 41.471Z" fill="white"/>
<path d="M21.8746 46.3016C20.8687 46.3016 19.8903 46.3021 18.9118 46.3015C18.3862 46.3012 18.0801 46.0054 18.0794 45.4736C18.0759 43.0595 18.0756 40.6454 18.0796 38.2313C18.0804 37.6947 18.3778 37.4108 18.919 37.41C20.2449 37.408 21.5708 37.4086 22.8967 37.4097C23.3533 37.4101 23.6608 37.6879 23.6569 38.0908C23.653 38.4936 23.345 38.7795 22.8997 38.7809C21.903 38.7841 20.9062 38.7819 19.9095 38.7819C19.8197 38.7819 19.73 38.7819 19.6283 38.7819C19.6283 39.5746 19.6283 40.3469 19.6283 41.1508C20.1399 41.1508 20.6485 41.1508 21.1571 41.1508C21.4589 41.1508 21.7607 41.1486 22.0624 41.1514C22.4654 41.1551 22.7683 41.4236 22.781 41.7838C22.7952 42.1852 22.5173 42.4909 22.0839 42.5007C21.3985 42.5163 20.7124 42.5051 20.0266 42.5053C19.9001 42.5053 19.7735 42.5053 19.6312 42.5053C19.6312 43.3124 19.6312 44.1036 19.6312 44.9291C19.7213 44.9291 19.8183 44.9291 19.9153 44.9291C20.9669 44.9291 22.0186 44.9232 23.0701 44.9317C23.6158 44.9362 23.9257 45.382 23.7488 45.88C23.6624 46.1233 23.4188 46.2967 23.1365 46.3003C22.725 46.3055 22.3135 46.3016 21.8746 46.3016Z" fill="white"/>
<path d="M12.7696 41.1481C13.5649 41.1506 14.3332 41.1502 15.1015 41.1511C15.548 41.1516 15.8523 41.4107 15.8629 41.7971C15.8741 42.2058 15.5814 42.4978 15.1248 42.5029C14.3297 42.5116 13.5343 42.5053 12.7192 42.5053C12.7192 43.3108 12.7192 44.1083 12.7192 44.9291C12.8105 44.9291 12.8997 44.9291 12.9889 44.9291C14.0316 44.9291 15.0743 44.9263 16.117 44.9305C16.5881 44.9324 16.8896 45.219 16.8796 45.6379C16.8698 46.0515 16.5814 46.3012 16.1088 46.3014C14.7277 46.3022 13.3465 46.3026 11.9654 46.3013C11.4729 46.3008 11.1633 45.9958 11.1629 45.5016C11.1607 43.0777 11.1608 40.6539 11.1626 38.2301C11.163 37.7004 11.4612 37.4108 12.0032 37.41C13.3295 37.4081 14.6557 37.4084 15.9819 37.4099C16.4488 37.4105 16.7228 37.6662 16.7245 38.0949C16.7261 38.5087 16.4379 38.7789 15.9749 38.7808C14.9779 38.7848 13.9809 38.782 12.984 38.782C12.8948 38.782 12.8057 38.782 12.702 38.782C12.702 39.5654 12.7016 40.3225 12.7037 41.0796C12.7037 41.1017 12.7291 41.1238 12.7696 41.1481Z" fill="white"/>
<path d="M54.0391 38.4055C54.041 37.6713 54.3041 37.4095 55.0134 37.4094C55.8275 37.4094 56.6421 37.3913 57.4555 37.4141C58.4155 37.4411 59.2563 37.7489 59.7561 38.634C60.1851 39.3936 60.2293 40.2201 59.9828 41.0432C59.6327 42.2124 58.7272 42.8234 57.3828 42.8422C56.7901 42.8505 56.1972 42.8436 55.5762 42.8436C55.5762 43.4419 55.5762 44.0241 55.5762 44.6063C55.5762 44.9447 55.5813 45.2833 55.5748 45.6216C55.5659 46.0865 55.2518 46.4061 54.8091 46.4113C54.3856 46.4164 54.0487 46.0789 54.0413 45.6215C54.0326 45.0911 54.0391 44.5604 54.0391 44.0299C54.0391 42.1639 54.0391 40.2978 54.0391 38.4055ZM56.0451 41.4712C56.4294 41.4712 56.8138 41.4798 57.1977 41.4692C58.0119 41.4468 58.4383 41.0756 58.5152 40.2695C58.5826 39.5629 58.3083 38.9026 57.5211 38.8226C56.8831 38.7577 56.2331 38.8095 55.5931 38.8095C55.5931 39.6964 55.5931 40.5784 55.5931 41.4712C55.737 41.4712 55.8641 41.4712 56.0451 41.4712Z" fill="white"/>
<path d="M32.5473 46.1017C32.4911 45.8924 32.4101 45.6999 32.4094 45.5071C32.4007 43.1121 32.4021 40.7171 32.4048 38.3221C32.4055 37.6799 32.6836 37.4096 33.3228 37.4095C34.1547 37.4093 34.9866 37.4033 35.8184 37.4116C36.3445 37.4169 36.8487 37.5321 37.3043 37.8058C38.213 38.3519 38.4867 39.2159 38.4751 40.2088C38.4682 40.8023 38.3349 41.366 37.9637 41.8473C37.3984 42.5805 36.6101 42.8274 35.7256 42.842C35.142 42.8516 34.5581 42.8438 33.9412 42.8438C33.9412 43.0538 33.9412 43.251 33.9412 43.4483C33.9412 44.143 33.9358 44.8378 33.9433 45.5325C33.9473 45.9039 33.8214 46.2021 33.4737 46.3513C33.1238 46.5015 32.8146 46.3924 32.5473 46.1017ZM34.6914 41.4712C34.9743 41.4711 35.2604 41.4975 35.5392 41.4634C35.8128 41.43 36.1098 41.3891 36.3419 41.2561C36.8442 40.9683 37.0191 40.2543 36.8134 39.6007C36.692 39.2152 36.4487 38.9371 36.0559 38.8582C35.7295 38.7926 35.388 38.7949 35.0526 38.7846C34.6837 38.7733 34.3143 38.782 33.9507 38.782C33.9507 39.6976 33.9507 40.5715 33.9507 41.4712C34.1852 41.4712 34.4109 41.4712 34.6914 41.4712Z" fill="white"/>
<path d="M24.7011 31.9458C24.3789 32.0667 24.1504 32.009 24.0107 31.7887C23.8676 31.563 23.8998 31.3325 24.1343 31.1C25.3615 29.8833 26.5928 28.6706 27.8227 27.4566C28.4474 26.8399 29.0732 26.2242 29.6953 25.6048C29.75 25.5503 29.8136 25.4725 29.8161 25.4034C29.8285 25.0597 29.8218 24.7152 29.8218 24.3173C29.7122 24.4193 29.6403 24.4824 29.5726 24.5497C28.0161 26.0973 26.4603 27.6456 24.9034 29.1928C24.8389 29.2569 24.7723 29.3228 24.6957 29.37C24.4865 29.4987 24.2385 29.4599 24.0709 29.2829C23.9014 29.104 23.8706 28.8572 24.0266 28.6589C24.1612 28.4879 24.3273 28.3413 24.4824 28.1869C26.1935 26.4835 27.9037 24.7791 29.6197 23.0807C29.7675 22.9344 29.8407 22.7892 29.8275 22.5792C29.8104 22.3088 29.8233 22.0366 29.8233 21.6864C29.7047 21.8008 29.6363 21.8649 29.57 21.9312C28.0305 23.4702 26.4913 25.0097 24.9513 26.5483C24.8739 26.6256 24.7965 26.7062 24.7069 26.7673C24.5152 26.898 24.2396 26.8685 24.0778 26.7007C23.9063 26.5231 23.873 26.3138 23.9949 26.0982C24.0476 26.0051 24.1323 25.9284 24.2094 25.8512C26.0131 24.0459 27.8165 22.2404 29.6246 20.4396C29.7632 20.3017 29.859 20.1669 29.8238 19.9642C29.6926 19.2075 29.9546 18.6247 30.5675 18.1629C30.8703 17.9347 31.1209 17.6372 31.395 17.3713C28.4056 14.3825 25.4428 11.4216 22.4835 8.45701C22.3665 8.33982 22.2785 8.30738 22.1093 8.36851C21.3519 8.64218 20.5424 8.34752 20.1334 7.67242C19.7307 7.00764 19.8457 6.16959 20.4157 5.61552C20.9521 5.09402 21.7967 5.0099 22.4388 5.41402C23.1041 5.83265 23.3708 6.64426 23.107 7.40847C23.0793 7.48866 23.0909 7.63031 23.1442 7.68372C26.1092 10.6558 29.0805 13.6215 32.0518 16.5872C32.0633 16.5988 32.0837 16.6015 32.0848 16.602C32.4284 16.2546 32.7673 15.9118 33.1133 15.5619C33.0839 15.5309 33.0297 15.4709 32.9726 15.4138C30.8837 13.3246 28.7936 11.2366 26.7077 9.14447C26.5799 9.01635 26.4814 8.96567 26.2884 9.03593C25.5586 9.30161 24.7566 9.01118 24.3544 8.36364C23.9516 7.71522 24.044 6.86008 24.5756 6.31679C25.1037 5.77693 25.9761 5.66761 26.6178 6.06088C27.2684 6.45962 27.5748 7.26446 27.3266 7.99014C27.2575 8.19231 27.2867 8.30772 27.4375 8.4574C29.5278 10.532 31.6107 12.6141 33.6945 14.6951C33.7459 14.7464 33.7882 14.8068 33.815 14.8391C34.8206 13.8334 35.8057 12.8483 36.8074 11.8465C36.5201 11.3071 36.4991 10.7208 36.8436 10.1456C37.2507 9.46578 38.0954 9.18904 38.8539 9.47627C39.5624 9.74462 40.0127 10.5407 39.8782 11.2871C39.732 12.0985 39.0807 12.6586 38.275 12.6636C38.1655 12.6642 38.0422 12.6856 37.9489 12.6441C37.6707 12.5204 37.5089 12.6519 37.3217 12.8406C35.2214 14.957 33.1118 17.0641 31.0123 19.1813C30.9176 19.2768 30.848 19.4444 30.8473 19.5789C30.8369 21.5454 30.8362 23.5119 30.8443 25.4784C30.8456 25.7725 30.7657 25.9928 30.549 26.2051C28.6678 28.0481 26.7976 29.9023 24.9234 31.7524C24.8586 31.8165 24.7861 31.8727 24.7011 31.9458ZM38.6516 10.5185C38.3915 10.3345 38.1226 10.3211 37.8641 10.508C37.6464 10.6654 37.5582 10.8903 37.6159 11.1574C37.6748 11.4297 37.8907 11.6262 38.1659 11.6581C38.4375 11.6896 38.6497 11.5792 38.7919 11.3498C38.9478 11.0983 38.906 10.8253 38.6516 10.5185ZM25.8063 6.83951C25.2687 6.87693 24.9784 7.27963 25.1675 7.72562C25.2858 8.00487 25.5587 8.16116 25.8482 8.11546C26.1548 8.06704 26.3774 7.82437 26.3939 7.52065C26.4125 7.17623 26.237 6.95762 25.8063 6.83951ZM21.2439 6.25334C20.9735 6.43571 20.8556 6.67822 20.9211 6.94439C20.9849 7.20414 21.1426 7.38311 21.4108 7.44179C21.6887 7.5026 21.9462 7.3902 22.0959 7.15416C22.2316 6.94029 22.2202 6.63404 22.0691 6.43288C21.8892 6.19329 21.6245 6.1269 21.2439 6.25334Z" fill="white"/>
<path d="M38.9797 13.1102C39.5776 12.5167 40.1561 11.931 40.7496 11.361C40.9127 11.2043 40.9568 11.0789 40.8841 10.8493C40.6712 10.1772 40.8362 9.57642 41.3683 9.11241C41.9 8.64876 42.5202 8.56763 43.1576 8.86033C43.7893 9.15039 44.1063 9.68039 44.1101 10.369C44.1165 11.5008 42.994 12.289 41.9072 11.9168C41.7235 11.8539 41.6338 11.8921 41.5115 12.0148C39.0896 14.4432 36.6641 16.868 34.2384 19.2925C33.8116 19.7191 33.3739 20.1351 32.9562 20.5704C32.8672 20.6633 32.7972 20.8186 32.7966 20.9456C32.7866 22.8844 32.7871 24.8234 32.7959 26.7622C32.7964 26.8821 32.8556 27.0324 32.9396 27.1166C34.1599 28.3402 35.3896 29.5545 36.6151 30.7729C36.692 30.8494 36.7696 30.9333 36.8183 31.0284C36.9316 31.2497 36.891 31.4605 36.7079 31.6261C36.5249 31.7915 36.3123 31.8072 36.1022 31.6766C36.0181 31.6243 35.948 31.5479 35.8769 31.4771C34.6066 30.2125 33.3402 28.9439 32.0644 27.6849C31.853 27.4763 31.7656 27.2559 31.7671 26.9575C31.7775 24.8723 31.776 22.787 31.7684 20.7018C31.7674 20.4349 31.8471 20.2363 32.0369 20.0472C34.3502 17.743 36.6573 15.4327 38.9797 13.1102ZM42.1266 9.7983C41.8549 9.95923 41.7701 10.2089 41.8264 10.5013C41.8755 10.7558 42.0508 10.9155 42.3004 10.9795C42.555 11.0448 42.7698 10.9607 42.9368 10.7647C43.1281 10.5403 43.1377 10.218 42.9706 9.97753C42.7996 9.73154 42.5278 9.66508 42.1266 9.7983Z" fill="white"/>
<path d="M38.2055 17.4406C38.8658 16.7804 39.5108 16.1322 40.1607 15.489C40.2673 15.3834 40.3046 15.3041 40.2477 15.1388C40.0203 14.478 40.1379 13.8636 40.639 13.3707C41.1333 12.8846 41.7427 12.7804 42.3885 13.018C43.0463 13.26 43.3855 13.7722 43.4511 14.4527C43.5628 15.61 42.3949 16.4936 41.2578 16.117C41.0874 16.0605 40.9881 16.0796 40.8593 16.2088C38.8123 18.2609 36.7602 20.3079 34.7046 22.3514C34.572 22.4832 34.51 22.6111 34.513 22.8024C34.5247 23.5429 34.5104 24.2838 34.5248 25.0242C34.5273 25.1511 34.5909 25.3075 34.6797 25.3974C35.8621 26.5943 37.0542 27.7817 38.2433 28.972C38.3142 29.043 38.3907 29.1116 38.4469 29.1934C38.578 29.3845 38.5566 29.6714 38.3965 29.8262C38.2216 29.9953 38.0136 30.0345 37.7941 29.9201C37.7152 29.8791 37.6467 29.8131 37.5827 29.7492C36.3338 28.5023 35.0904 27.2498 33.8345 26.01C33.5956 25.7741 33.4893 25.5245 33.4954 25.1886C33.5114 24.2928 33.5048 23.3964 33.4983 22.5004C33.4965 22.2569 33.5688 22.0697 33.7466 21.8932C35.233 20.4183 36.7112 18.935 38.2055 17.4406ZM42.1418 15.1019C42.4014 14.9147 42.4895 14.6609 42.3984 14.3599C42.3202 14.1016 42.1249 13.957 41.8603 13.9204C41.5905 13.8831 41.3269 14.0305 41.2147 14.2801C41.1005 14.5341 41.1258 14.7778 41.3114 14.9921C41.505 15.2156 41.7731 15.2566 42.1418 15.1019Z" fill="white"/>
<path d="M39.4261 21.1861C38.456 22.1561 37.4996 23.1125 36.5393 24.0728C36.9614 24.4987 37.3706 24.9131 37.7817 25.3257C38.324 25.8699 38.8684 26.412 39.4106 26.9562C39.6706 27.2172 39.6928 27.5068 39.4735 27.7236C39.256 27.9384 38.9524 27.9232 38.6981 27.6698C37.6486 26.6242 36.6017 25.576 35.5554 24.5272C35.2277 24.1987 35.2271 23.9448 35.5595 23.6127C37.0151 22.1583 38.474 20.7071 39.9301 19.2532C41.3992 17.7862 42.865 16.3159 44.337 14.8517C44.4675 14.722 44.5042 14.6248 44.4333 14.4344C44.1052 13.5543 44.6221 12.5687 45.5268 12.3063C46.4677 12.0335 47.3992 12.5936 47.6126 13.5607C47.8148 14.4769 47.1836 15.3978 46.2434 15.5169C45.9895 15.5491 45.7136 15.5165 45.4654 15.4488C45.2752 15.397 45.1731 15.4338 45.0445 15.5629C43.179 17.4354 41.3088 19.3033 39.4261 21.1861ZM46.0922 14.5295C46.3787 14.4878 46.5471 14.3151 46.6176 14.0434C46.6808 13.7999 46.5989 13.5926 46.4243 13.4244C46.2199 13.2275 45.9007 13.1974 45.6656 13.3406C45.4219 13.489 45.2967 13.7803 45.3636 14.0432C45.4469 14.371 45.6582 14.5221 46.0922 14.5295Z" fill="white"/>
<path d="M16.5914 9.49913C17.1192 8.73688 18.0034 8.48994 18.7647 8.87865C19.517 9.26274 19.8427 10.1117 19.542 10.9564C19.4788 11.134 19.5741 11.2043 19.668 11.2982C21.2847 12.9152 22.8997 14.5339 24.521 16.1463C24.6955 16.3199 24.7802 16.5021 24.7796 16.7497C24.7741 18.9265 24.7776 21.1033 24.7734 23.2801C24.7731 23.4134 24.7597 23.561 24.7019 23.6768C24.5916 23.898 24.3867 23.9739 24.1461 23.9197C23.9124 23.867 23.789 23.7054 23.7706 23.4727C23.7577 23.3091 23.7675 23.1436 23.7675 22.979C23.7674 21.0034 23.7699 19.0278 23.7616 17.0523C23.7611 16.9316 23.7093 16.7789 23.6265 16.6955C22.0484 15.1048 20.462 13.5222 18.8772 11.9382C18.8451 11.9061 18.8102 11.877 18.7773 11.8471C18.0118 12.1343 17.3165 12.0694 16.7503 11.4341C16.2853 10.9123 16.2326 10.2126 16.5914 9.49913ZM18.4382 9.87002C17.9989 9.5917 17.5115 9.73036 17.3928 10.1674C17.311 10.4689 17.4346 10.7694 17.7016 10.9177C17.9724 11.068 18.2861 11.0096 18.4928 10.7704C18.7156 10.5126 18.7076 10.2205 18.4382 9.87002Z" fill="white"/>
<path d="M20.6448 10.489C20.9605 9.71936 21.6079 9.30438 22.3651 9.37035C23.1042 9.43476 23.6958 9.94323 23.8326 10.7012C23.8823 10.9764 23.844 11.2863 23.7687 11.559C23.7151 11.7531 23.7504 11.849 23.8782 11.9756C25.1573 13.2432 26.4276 14.5199 27.7109 15.7833C27.9429 16.0117 28.0494 16.2498 28.0466 16.5789C28.0335 18.1146 28.0427 19.6506 28.0396 21.1865C28.0387 21.6448 27.713 21.9114 27.3399 21.7654C27.0674 21.6587 27.0057 21.4277 27.006 21.1643C27.0068 20.3963 27.0063 19.6284 27.0063 18.8604C27.0063 18.1473 27.0122 17.4341 27.0001 16.7212C26.9982 16.6097 26.9424 16.4717 26.8642 16.3928C25.6221 15.1399 24.3737 13.8931 23.12 12.6518C23.0545 12.587 22.9116 12.5334 22.8329 12.5596C22.1782 12.7772 21.5785 12.6948 21.0736 12.2205C20.5756 11.7527 20.4628 11.1618 20.6448 10.489ZM22.6308 11.5042C22.8671 11.2392 22.9192 10.9893 22.7858 10.7352C22.6534 10.4833 22.4408 10.3635 22.158 10.3828C21.8809 10.4017 21.6602 10.5892 21.5919 10.8628C21.5259 11.1268 21.6002 11.3582 21.8133 11.5224C22.0653 11.7166 22.3352 11.7155 22.6308 11.5042Z" fill="white"/>
<path d="M6.63379 48.9421C6.44803 49.3114 6.27126 49.6612 6.0945 50.011C6.05372 50.0105 6.01293 50.01 5.97214 50.0095C5.77698 49.6299 5.58183 49.2503 5.38667 48.8707C5.36334 48.8734 5.34 48.8761 5.31667 48.8788C5.31667 49.1511 5.32599 49.424 5.31142 49.6956C5.30657 49.7859 5.24041 49.873 5.20228 49.9615C5.1525 49.8719 5.06266 49.7835 5.0597 49.6924C5.04492 49.2362 5.04902 48.7792 5.05595 48.3226C5.05746 48.2233 5.09775 48.1245 5.1609 48.0181C5.57816 48.4489 5.71785 49.0296 6.04977 49.5232C6.27218 49.0785 6.4796 48.6534 6.69898 48.2345C6.73982 48.1566 6.82868 48.1037 6.89539 48.0393C6.93296 48.1296 7.00091 48.2193 7.003 48.3105C7.01393 48.7852 7.01396 49.2604 7.00224 49.735C7.00032 49.8131 6.92114 49.8892 6.87767 49.9662C6.83123 49.8889 6.74907 49.8136 6.74473 49.734C6.72868 49.4398 6.73834 49.1443 6.73834 48.7815C6.67922 48.8687 6.661 48.8956 6.63379 48.9421Z" fill="white"/>
<path d="M29.789 49.9773C29.2202 49.8934 28.8945 49.5892 28.8496 49.1189C28.8061 48.6635 29.0505 48.2432 29.4612 48.0995C29.857 47.961 30.2103 48.0352 30.5129 48.3403C30.8047 48.6346 30.8498 48.9819 30.7154 49.3475C30.5652 49.7556 30.247 49.9596 29.789 49.9773ZM30.0871 48.346C29.6776 48.2373 29.3744 48.3407 29.1896 48.6519C29.053 48.8819 29.0857 49.2497 29.2573 49.4481C29.4632 49.686 29.7207 49.7682 30.0194 49.6808C30.2966 49.5997 30.4568 49.4015 30.5036 49.1163C30.5593 48.7765 30.4179 48.5346 30.0871 48.346Z" fill="white"/>
<path d="M56.7923 48.6108C56.7923 48.9847 56.7972 49.3321 56.7889 49.6791C56.7867 49.7697 56.7429 49.8593 56.7182 49.9493C56.6305 49.9 56.5179 49.8707 56.4593 49.798C56.1688 49.4378 55.893 49.0658 55.6106 48.6991C55.5847 48.6655 55.5486 48.6399 55.4749 48.5711C55.4749 48.9792 55.4828 49.3392 55.4694 49.6985C55.466 49.7884 55.394 49.8757 55.3536 49.9643C55.3092 49.8782 55.2289 49.793 55.2265 49.7058C55.2137 49.2401 55.216 48.7739 55.2244 48.308C55.226 48.2199 55.2785 48.1328 55.3075 48.0452C55.392 48.1017 55.4967 48.1419 55.5575 48.2175C55.8647 48.5992 56.1604 48.9901 56.5217 49.3724C56.5217 49.1167 56.5032 48.8593 56.5277 48.606C56.5462 48.4147 56.4021 48.0711 56.6531 48.0662C56.9227 48.061 56.7362 48.404 56.7923 48.6108Z" fill="white"/>
<path d="M39.8821 49.1361C39.8821 48.8279 39.8739 48.5441 39.8879 48.2615C39.8914 48.1895 39.9655 48.121 40.0072 48.0509C40.0556 48.1226 40.1442 48.1933 40.1461 48.2662C40.1585 48.7594 40.1561 49.2531 40.1487 49.7466C40.1476 49.8184 40.094 49.8895 40.0647 49.961C39.9922 49.92 39.8994 49.8956 39.8506 49.8354C39.5242 49.4335 39.2072 49.0239 38.8639 48.5872C38.7763 49.0624 38.9126 49.535 38.7793 49.9759C38.7417 49.9816 38.704 49.9873 38.6664 49.9929C38.6353 49.9067 38.5789 49.8208 38.5773 49.734C38.5686 49.2498 38.569 48.7652 38.5772 48.281C38.5785 48.203 38.6347 48.126 38.6655 48.0486C38.7391 48.0913 38.8333 48.1176 38.8829 48.1795C39.2062 48.5834 39.5198 48.995 39.8821 49.4627C39.8821 49.3243 39.8821 49.2426 39.8821 49.1361Z" fill="white"/>
<path d="M43.1561 49.9667C42.654 49.7973 42.3743 49.4549 42.3621 49.0169C42.3514 48.6321 42.6255 48.2319 43.0087 48.0951C43.2852 47.9965 43.5658 47.9938 43.8165 48.1656C43.8911 48.2167 43.9272 48.3241 43.9809 48.4058C43.8854 48.403 43.776 48.4298 43.6968 48.3925C43.3544 48.2313 43.0526 48.2743 42.8079 48.5423C42.6032 48.7667 42.5725 49.1218 42.736 49.3756C42.916 49.6549 43.2713 49.7841 43.5697 49.6785C43.7446 49.6167 43.7499 49.6011 43.7126 49.221C43.6178 49.221 43.5165 49.2364 43.4236 49.2151C43.3689 49.2026 43.3276 49.1319 43.2802 49.0873C43.322 49.0477 43.3614 48.9774 43.406 48.974C43.5592 48.9621 43.7145 48.9696 43.8684 48.9789C43.9068 48.9812 43.9575 49.0087 43.9781 49.0405C44.1361 49.284 43.9649 49.8197 43.6872 49.9064C43.5265 49.9565 43.3487 49.9518 43.1561 49.9667Z" fill="white"/>
<path d="M34.3823 49.579C34.0861 49.9697 33.6837 50.0139 33.2618 49.9697C33.1974 49.963 33.0965 49.8445 33.0945 49.7754C33.0798 49.2547 33.0812 48.7334 33.0908 48.2126C33.0919 48.1525 33.1631 48.0604 33.2214 48.0402C33.598 47.9101 34.1617 48.1151 34.4162 48.4602C34.6326 48.7537 34.6232 49.2083 34.3823 49.579ZM33.5374 48.2892C33.4765 48.3302 33.364 48.3696 33.3626 48.4125C33.3495 48.8386 33.3547 49.2652 33.3547 49.6891C33.9135 49.7492 34.2449 49.5359 34.3 49.0974C34.3547 48.6609 34.0825 48.3535 33.5374 48.2892Z" fill="white"/>
<path d="M17.0974 48.8793C17.1779 48.8797 17.2388 48.8653 17.2861 48.8845C17.3436 48.9078 17.3897 48.9593 17.4407 48.9987C17.3842 49.0433 17.3303 49.1219 17.2707 49.1264C17.0623 49.1423 16.852 49.1325 16.6281 49.1325C16.6281 49.3241 16.6281 49.5027 16.6281 49.7111C16.9104 49.7111 17.1911 49.7006 17.4702 49.7174C17.555 49.7225 17.6353 49.803 17.7177 49.8489C17.6414 49.8929 17.5667 49.9713 17.4885 49.975C17.1783 49.9897 16.8669 49.9758 16.5563 49.9832C16.399 49.987 16.3432 49.9135 16.3434 49.7698C16.3441 49.2578 16.3361 48.7456 16.3523 48.2342C16.3545 48.1631 16.47 48.0406 16.5391 48.0361C16.8669 48.015 17.1971 48.0188 17.5256 48.0325C17.5949 48.0354 17.6609 48.117 17.7284 48.1624C17.6579 48.2048 17.5891 48.2803 17.5168 48.2838C17.2252 48.2979 16.9326 48.2896 16.627 48.2896C16.627 48.481 16.627 48.6609 16.627 48.8793C16.7696 48.8793 16.9207 48.8793 17.0974 48.8793Z" fill="white"/>
<path d="M13.2602 49.9048C13.0976 50.0128 13.032 49.9505 13.0317 49.789C13.0307 49.2678 13.0274 48.7465 13.0364 48.2254C13.0375 48.1626 13.1091 48.101 13.148 48.0388C13.1973 48.1029 13.2812 48.163 13.289 48.2317C13.3092 48.4098 13.2958 48.5917 13.2958 48.8513C13.5171 48.6337 13.6874 48.4664 13.8575 48.2989C13.9162 48.2411 13.9654 48.167 14.0347 48.1289C14.1019 48.0919 14.1892 48.0915 14.2677 48.075C14.2535 48.1529 14.2657 48.2548 14.2205 48.3043C14.0423 48.4992 13.846 48.6776 13.6413 48.8769C13.8448 49.1545 14.0421 49.4108 14.2226 49.6786C14.2677 49.7456 14.2586 49.8492 14.2745 49.936C14.1875 49.9023 14.0708 49.8933 14.019 49.8306C13.829 49.6009 13.6606 49.3535 13.4391 49.0512C13.381 49.1902 13.3187 49.2884 13.3006 49.3941C13.2733 49.5547 13.2768 49.7204 13.2602 49.9048Z" fill="white"/>
<path d="M51.9968 49.4185C52.1056 49.6661 52.2893 49.7533 52.5166 49.6903C52.734 49.6301 52.8248 49.4514 52.8255 49.2299C52.8267 48.9105 52.8173 48.5906 52.832 48.2719C52.8355 48.1953 52.9159 48.1223 52.961 48.0476C53.0039 48.1226 53.0821 48.1969 53.0836 48.2727C53.0907 48.6369 53.0927 49.0027 53.0665 49.3657C53.0408 49.7213 52.7619 49.9666 52.4155 49.9806C52.0918 49.9937 51.7806 49.7713 51.741 49.4294C51.6941 49.024 51.7014 48.6118 51.701 48.2025C51.701 48.148 51.794 48.0934 51.8439 48.0388C51.8832 48.1003 51.9536 48.1603 51.9567 48.2235C51.9759 48.6143 51.98 49.0058 51.9968 49.4185Z" fill="white"/>
<path d="M10.9078 49.8114C10.8506 50.0484 10.7489 50.0074 10.6686 49.8567C10.5798 49.69 10.5194 49.5082 10.4422 49.3222C10.3878 49.3222 10.3336 49.3225 10.2794 49.3221C9.81712 49.3187 9.82361 49.3214 9.64394 49.7488C9.60854 49.833 9.50167 49.8872 9.42776 49.9552C9.42277 49.8586 9.38749 49.751 9.4178 49.6671C9.58714 49.1985 9.76775 48.7338 9.95614 48.2725C9.99191 48.1849 10.0799 48.1186 10.1438 48.0425C10.2012 48.1162 10.2793 48.1816 10.3127 48.265C10.5156 48.771 10.7083 49.2811 10.9078 49.8114ZM10.1618 49.0539C10.2659 49.061 10.3462 49.0482 10.2899 48.9105C10.2469 48.8056 10.2069 48.6994 10.1435 48.5371C10.0725 48.7032 10.0133 48.8191 9.97889 48.942C9.97243 48.9651 10.0652 49.0159 10.1618 49.0539Z" fill="white"/>
<path d="M25.7624 49.6915C25.9737 49.6568 26.1629 49.6091 26.3547 49.5782C26.4215 49.5674 26.495 49.598 26.5655 49.6097C26.538 49.6761 26.5294 49.7672 26.48 49.8051C26.1089 50.0897 25.5541 50.0187 25.2216 49.6544C24.8871 49.2879 24.8829 48.7418 25.2117 48.3596C25.514 48.0083 26.0836 47.9201 26.4434 48.1815C26.5089 48.2292 26.5346 48.3317 26.5788 48.4088C26.4906 48.4092 26.3897 48.438 26.3163 48.4053C25.8775 48.2095 25.4611 48.3239 25.2949 48.7003C25.115 49.1074 25.2875 49.488 25.7624 49.6915Z" fill="white"/>
<path d="M48.2486 48.4556C48.2518 48.0245 48.2518 48.0244 48.6565 48.0244C48.9119 48.0244 49.1679 48.0156 49.4224 48.0315C49.4908 48.0357 49.5545 48.1157 49.6204 48.161C49.5506 48.2042 49.4824 48.2813 49.4107 48.2848C49.1224 48.2992 48.8331 48.2908 48.5301 48.2908C48.5301 48.5023 48.5301 48.6808 48.5301 48.8786C48.7496 48.8786 48.968 48.872 49.1856 48.8832C49.2405 48.8861 49.2924 48.9459 49.3458 48.9795C49.2949 49.031 49.2473 49.1225 49.1926 49.1269C48.9768 49.1441 48.7588 49.134 48.5151 49.134C48.5151 49.3314 48.5297 49.5035 48.5096 49.6716C48.4976 49.7724 48.4317 49.8668 48.3899 49.964C48.3428 49.8621 48.2593 49.7616 48.255 49.6578C48.2389 49.2662 48.2486 48.8735 48.2486 48.4556Z" fill="white"/>
<path d="M19.9553 48.8811C19.7568 48.6025 19.7613 48.3934 19.9557 48.18C20.1054 48.0157 20.3724 47.983 20.5784 48.1178C20.6987 48.1965 20.824 48.2898 20.6965 48.4826C20.6366 48.4567 20.583 48.4279 20.5259 48.4101C20.4211 48.3772 20.3106 48.3214 20.2096 48.3337C20.1563 48.3402 20.0627 48.5008 20.0836 48.5384C20.1387 48.6375 20.2329 48.74 20.3358 48.7827C20.596 48.8908 20.7995 49.0301 20.8344 49.3346C20.8618 49.5742 20.6935 49.843 20.4521 49.9388C20.2161 50.0325 19.9004 49.9445 19.7719 49.7362C19.7403 49.6849 19.753 49.6063 19.7454 49.5403C19.8149 49.5493 19.8877 49.548 19.9532 49.5695C20.0687 49.6072 20.1877 49.7075 20.2902 49.6907C20.3897 49.6743 20.5378 49.5478 20.5431 49.4621C20.5503 49.3448 20.4697 49.1913 20.3776 49.1066C20.269 49.0066 20.108 48.9634 19.9553 48.8811Z" fill="white"/>
<path d="M36.7045 49.1554C36.7044 49.3929 36.712 49.6036 36.6991 49.8131C36.6957 49.869 36.6294 49.921 36.5919 49.9749C36.5413 49.9217 36.4479 49.8694 36.4467 49.8151C36.4348 49.2762 36.4339 48.7368 36.4437 48.1978C36.4447 48.1444 36.5368 48.0926 36.5867 48.04C36.6259 48.1011 36.6966 48.1609 36.6991 48.2234C36.711 48.5246 36.7045 48.8264 36.7045 49.1554Z" fill="white"/>
</svg>
