<svg width="1026" height="818" viewBox="0 0 1026 818" fill="none" xmlns="http://www.w3.org/2000/svg">
<path d="M738.776 593.189C758.4 603.52 766.659 624.268 763.956 643.749C760.551 668.292 748.13 681.986 727.342 685.852C732.701 692.406 737.857 698.761 743.067 705.072C749.616 713.006 756.321 720.814 762.747 728.846C767.717 735.058 766.433 744.123 760.235 748.842C754.28 753.376 745.372 752.199 740.716 746.02C727.376 728.317 713.97 710.659 700.996 692.691C698.244 688.881 695.629 687.005 691.018 687.5C688.076 687.816 685.072 687.559 681.532 687.559C681.532 689.394 681.533 690.994 681.532 692.593C681.52 707.418 681.64 722.245 681.441 737.067C681.339 744.659 676.772 750.037 670.049 751.364C664.154 752.527 657.664 749.52 655.111 744.001C654.106 741.827 653.594 739.225 653.589 736.817C653.502 691.842 653.501 646.867 653.545 601.892C653.554 593.241 659.228 587.622 667.972 587.576C683.963 587.492 699.983 586.991 715.933 587.799C723.508 588.182 730.951 591.179 738.776 593.189ZM703.021 612.559C695.936 612.559 688.852 612.559 681.74 612.559C681.74 629.518 681.74 645.909 681.74 662.539C693.863 662.539 705.786 662.741 717.694 662.388C720.452 662.306 723.503 660.811 725.821 659.138C735.23 652.346 736.475 642.42 734.863 632.014C732.852 619.034 725.064 612.712 711.996 612.563C709.336 612.533 706.676 612.559 703.021 612.559Z" fill="#3FA7A5"/>
<path d="M492.775 618.333C499.745 640.854 496.969 660.953 478.922 676.83C473.783 681.352 466.703 683.668 460.291 687.116C466.028 694.126 472.586 702.168 479.178 710.183C484.24 716.339 489.465 722.365 494.399 728.621C499.602 735.22 498.432 744.304 492.034 749.003C485.905 753.506 477.258 752.04 472.286 745.437C458.956 727.732 445.586 710.055 432.551 692.135C429.967 688.584 427.393 687.05 423.14 687.497C420.047 687.822 416.892 687.56 413.368 687.56C413.368 703.93 413.384 719.879 413.361 735.829C413.35 743.553 410.226 748.502 404.073 750.709C395.631 753.736 386.692 748.353 385.56 739.484C385.309 737.511 385.362 735.493 385.361 733.496C385.351 690.836 385.288 648.176 385.463 605.516C385.479 601.525 385.984 596.799 388.151 593.763C390.268 590.799 394.779 587.905 398.286 587.847C417.244 587.533 436.303 587.087 455.159 588.673C473.27 590.197 485.811 600.94 492.775 618.333ZM466.901 642.364C466.835 638.746 467.21 635.056 466.621 631.526C464.85 620.918 458.902 613.785 449.38 613.074C437.517 612.188 425.537 612.861 413.623 612.861C413.623 629.533 413.623 645.943 413.623 662.715C424.332 662.715 434.79 662.791 445.246 662.696C457.477 662.585 465.215 655.481 466.901 642.364Z" fill="#3FA7A5"/>
<path d="M828.543 724.553C845.873 724.555 862.708 724.407 879.539 724.613C890.077 724.742 896.142 734.655 891.199 743.252C888.875 747.295 885.297 749.538 880.57 749.544C854.404 749.573 828.237 749.632 802.071 749.512C793.931 749.474 788.568 743.484 788.544 734.803C788.488 715.303 788.526 695.803 788.526 676.303C788.526 651.97 788.517 627.637 788.53 603.303C788.536 592.964 793.848 587.569 804.071 587.56C828.071 587.539 852.075 587.787 876.069 587.422C884.044 587.301 890.112 592.886 890.292 600.182C890.47 607.416 884.323 612.547 875.801 612.554C857.801 612.568 839.801 612.558 821.801 612.558C820.179 612.558 818.557 612.558 816.736 612.558C816.736 627.047 816.736 641.132 816.736 655.72C831.478 655.72 846.084 655.773 860.688 655.69C865.748 655.661 869.831 657.38 872.461 661.736C877.538 670.148 871.855 679.952 861.441 680.309C851.453 680.651 841.444 680.389 831.444 680.392C826.642 680.393 821.839 680.392 816.531 680.392C816.531 687.968 816.531 695.252 816.531 702.535C816.531 709.679 816.531 716.824 816.531 724.553C820.505 724.553 824.276 724.553 828.543 724.553Z" fill="#3FA7A5"/>
<path d="M39.5283 587.547C51.314 587.969 62.8432 587.065 73.8357 589.083C98.3303 593.58 111.583 612.357 110.713 638.716C110.093 657.513 103.333 673.073 85.5096 681.026C77.7204 684.501 68.5891 685.623 59.9437 686.356C49.5493 687.237 39.0233 686.564 28.0532 686.564C28.0532 694.508 28.0939 702.108 28.0431 709.706C27.9775 719.525 28.1869 729.364 27.6176 739.155C27.1891 746.526 21.0432 751.586 13.8789 751.561C6.99292 751.537 1.40307 746.573 0.359822 739.45C0.0961192 737.649 0.0172463 735.807 0.0164613 733.984C-0.00183472 691.34 -0.00422958 648.695 0.00606242 606.05C0.00939642 592.23 4.72059 587.547 18.5389 587.547C25.3687 587.547 32.1985 587.547 39.5283 587.547ZM55.842 661.548C66.4475 661.506 75.4127 658.726 79.8842 647.809C86.3975 631.908 78.3607 614.669 62.5831 613.02C51.2765 611.838 39.747 612.79 28.2933 612.79C28.2933 629.096 28.2933 645.139 28.2933 661.548C37.3154 661.548 46.0996 661.548 55.842 661.548Z" fill="#3FA7A5"/>
<path d="M328.528 749.559C310.202 749.559 292.377 749.567 274.551 749.556C264.974 749.55 259.398 744.161 259.384 734.473C259.32 690.491 259.315 646.509 259.388 602.528C259.404 592.752 264.821 587.578 274.681 587.564C298.837 587.528 322.994 587.539 347.15 587.56C355.469 587.567 361.071 592.628 361 599.968C360.929 607.306 355.318 612.516 347.204 612.541C329.045 612.598 310.886 612.559 292.727 612.559C291.092 612.559 289.456 612.559 287.603 612.559C287.603 627 287.603 641.072 287.603 655.718C296.925 655.718 306.191 655.718 315.457 655.718C320.955 655.718 326.453 655.678 331.95 655.728C339.292 655.795 344.811 660.687 345.042 667.25C345.3 674.562 340.238 680.132 332.342 680.311C319.854 680.594 307.355 680.391 294.86 680.394C292.555 680.395 290.25 680.394 287.657 680.394C287.657 695.099 287.657 709.514 287.657 724.553C289.298 724.553 291.066 724.553 292.833 724.553C311.992 724.554 331.152 724.445 350.309 724.601C360.25 724.682 365.896 732.804 362.675 741.877C361.101 746.309 356.663 749.469 351.518 749.534C344.023 749.629 336.525 749.559 328.528 749.559Z" fill="#3FA7A5"/>
<path d="M162.647 655.667C177.136 655.712 191.134 655.706 205.131 655.722C213.267 655.731 218.811 660.451 219.004 667.49C219.208 674.937 213.875 680.257 205.557 680.349C191.07 680.508 176.58 680.393 161.729 680.393C161.729 695.069 161.729 709.597 161.729 724.553C163.393 724.553 165.018 724.553 166.643 724.553C185.64 724.553 204.637 724.5 223.633 724.577C232.215 724.611 237.709 729.834 237.527 737.465C237.348 745 232.095 749.549 223.483 749.554C198.321 749.568 173.158 749.575 147.996 749.551C139.024 749.542 133.383 743.985 133.375 734.981C133.335 690.822 133.338 646.663 133.371 602.504C133.378 592.854 138.81 587.578 148.685 587.564C172.847 587.528 197.01 587.534 221.173 587.562C229.678 587.572 234.669 592.23 234.701 600.042C234.731 607.58 229.48 612.502 221.044 612.537C202.88 612.61 184.717 612.559 166.553 612.559C164.929 612.559 163.305 612.559 161.416 612.559C161.416 626.832 161.409 640.626 161.447 654.419C161.448 654.822 161.909 655.224 162.647 655.667Z" fill="#3FA7A5"/>
<path d="M914.526 605.701C914.561 592.325 919.354 587.554 932.276 587.554C947.108 587.553 961.949 587.223 976.769 587.639C994.258 588.131 1009.58 593.738 1018.68 609.863C1026.5 623.702 1027.3 638.76 1022.81 653.756C1016.43 675.057 999.938 686.19 975.445 686.532C964.646 686.683 953.844 686.558 942.531 686.558C942.531 697.458 942.531 708.064 942.531 718.671C942.53 724.837 942.623 731.005 942.505 737.169C942.343 745.638 936.619 751.461 928.555 751.557C920.838 751.649 914.702 745.5 914.565 737.167C914.407 727.504 914.526 717.836 914.526 708.17C914.526 674.174 914.526 640.177 914.526 605.701ZM951.074 661.554C958.074 661.553 965.078 661.711 972.072 661.518C986.905 661.109 994.673 654.347 996.074 639.66C997.303 626.788 992.306 614.758 977.964 613.3C966.339 612.118 954.499 613.06 942.838 613.06C942.838 629.219 942.838 645.289 942.838 661.554C945.46 661.554 947.775 661.554 951.074 661.554Z" fill="#3FA7A5"/>
<path d="M522.972 745.914C521.948 742.101 520.472 738.593 520.459 735.081C520.301 691.448 520.326 647.813 520.375 604.18C520.389 592.479 525.455 587.556 537.101 587.553C552.257 587.549 567.413 587.441 582.567 587.592C592.152 587.688 601.338 589.787 609.638 594.774C626.195 604.722 631.18 620.463 630.97 638.554C630.844 649.367 628.414 659.637 621.653 668.405C611.353 681.763 596.991 686.261 580.876 686.526C570.244 686.701 559.606 686.559 548.367 686.559C548.367 690.385 548.367 693.979 548.367 697.573C548.367 710.23 548.27 722.888 548.406 735.544C548.479 742.311 546.184 747.744 539.851 750.462C533.476 753.199 527.842 751.21 522.972 745.914ZM562.035 661.553C567.189 661.551 572.402 662.031 577.48 661.41C582.465 660.801 587.876 660.056 592.105 657.633C601.257 652.391 604.442 639.383 600.695 627.474C598.484 620.45 594.051 615.385 586.894 613.947C580.949 612.752 574.725 612.793 568.616 612.606C561.895 612.4 555.164 612.559 548.54 612.559C548.54 629.24 548.54 645.16 548.54 661.553C552.812 661.553 556.925 661.553 562.035 661.553Z" fill="#3FA7A5"/>
<path d="M380.022 488.014C374.153 490.217 369.988 489.165 367.444 485.153C364.836 481.04 365.424 476.84 369.696 472.606C392.054 450.439 414.486 428.345 436.893 406.226C448.275 394.991 459.676 383.774 471.009 372.489C472.006 371.497 473.166 370.079 473.211 368.821C473.437 362.558 473.314 356.282 473.314 349.033C471.317 350.89 470.008 352.04 468.775 353.266C440.418 381.462 412.072 409.669 383.708 437.858C382.533 439.026 381.319 440.227 379.923 441.087C376.112 443.431 371.593 442.725 368.54 439.5C365.452 436.24 364.891 431.743 367.734 428.132C370.186 425.016 373.211 422.345 376.037 419.532C407.212 388.498 438.369 357.446 469.633 326.503C472.325 323.838 473.659 321.193 473.418 317.367C473.107 312.441 473.342 307.48 473.342 301.1C471.182 303.186 469.935 304.353 468.727 305.56C440.679 333.6 412.637 361.647 384.58 389.678C383.171 391.087 381.761 392.555 380.128 393.668C376.635 396.05 371.615 395.512 368.665 392.456C365.542 389.22 364.936 385.406 367.157 381.478C368.116 379.782 369.659 378.384 371.064 376.978C403.925 344.088 436.781 311.194 469.723 278.386C472.247 275.873 473.992 273.417 473.352 269.724C470.96 255.939 475.735 245.321 486.9 236.907C492.417 232.749 496.984 227.329 501.976 222.484C447.514 168.034 393.535 114.089 339.62 60.078C337.489 57.9428 335.884 57.3518 332.802 58.4656C319.004 63.4515 304.256 58.0831 296.805 45.7837C289.468 33.6722 291.563 18.404 301.947 8.30957C311.721 -1.19158 327.107 -2.72408 338.807 4.63836C350.926 12.2653 355.785 27.0519 350.979 40.9748C350.475 42.4358 350.687 45.0165 351.658 45.9895C405.675 100.137 459.809 154.168 513.942 208.2C514.153 208.411 514.523 208.461 514.544 208.47C520.803 202.14 526.978 195.895 533.282 189.52C532.746 188.955 531.759 187.862 530.719 186.822C492.662 148.76 454.583 110.719 416.579 72.6026C414.252 70.2683 412.458 69.3451 408.941 70.6251C395.644 75.4654 381.034 70.1741 373.705 58.3768C366.367 46.5635 368.051 30.9839 377.735 21.0858C387.358 11.2501 403.251 9.25847 414.941 16.4233C426.794 23.688 432.377 38.3511 427.856 51.5721C426.596 55.2554 427.128 57.358 429.876 60.0851C467.959 97.8808 505.906 135.814 543.871 173.729C544.807 174.663 545.578 175.764 546.066 176.351C564.387 158.029 582.334 140.081 600.583 121.831C595.35 112.002 594.967 101.321 601.243 90.8419C608.66 78.4565 624.05 73.4145 637.868 78.6476C650.776 83.5365 658.98 98.0405 656.53 111.639C653.865 126.421 642.001 136.625 627.321 136.716C625.326 136.728 623.079 137.117 621.38 136.362C616.313 134.109 613.364 136.504 609.953 139.941C571.689 178.5 533.254 216.889 495.004 255.462C493.278 257.202 492.012 260.255 491.999 262.705C491.808 298.531 491.797 334.36 491.944 370.187C491.966 375.544 490.511 379.558 486.563 383.425C452.29 417.002 418.218 450.784 384.073 484.492C382.891 485.658 381.57 486.682 380.022 488.014ZM634.183 97.6356C629.443 94.2831 624.546 94.0393 619.835 97.4449C615.869 100.312 614.262 104.409 615.314 109.275C616.387 114.236 620.32 117.816 625.333 118.397C630.283 118.971 634.148 116.96 636.739 112.781C639.58 108.198 638.817 103.226 634.183 97.6356ZM400.157 30.6091C390.364 31.2909 385.075 38.6275 388.519 46.7529C390.675 51.8404 395.647 54.6878 400.921 53.8552C406.507 52.9732 410.563 48.5521 410.862 43.0186C411.201 36.7436 408.004 32.761 400.157 30.6091ZM317.036 19.9298C312.111 23.2524 309.963 27.6705 311.155 32.5199C312.318 37.2523 315.191 40.5128 320.077 41.5819C325.14 42.6897 329.832 40.642 332.559 36.3416C335.031 32.4451 334.823 26.8656 332.071 23.2008C328.793 18.8357 323.969 17.6263 317.036 19.9298Z" fill="#3FA7A5"/>
<path d="M640.161 144.854C651.053 134.041 661.592 123.371 672.405 112.986C675.378 110.131 676.181 107.846 674.856 103.663C670.978 91.4181 673.984 80.4727 683.678 72.019C693.365 63.5719 704.664 62.0939 716.277 67.4266C727.786 72.711 733.56 82.367 733.631 94.9118C733.748 115.533 713.297 129.893 693.496 123.112C690.15 121.966 688.516 122.662 686.286 124.898C642.163 169.14 597.974 213.316 553.78 257.488C546.004 265.26 538.03 272.839 530.421 280.77C528.798 282.462 527.524 285.292 527.512 287.605C527.331 322.928 527.339 358.253 527.5 393.577C527.51 395.761 528.588 398.499 530.118 400.033C552.35 422.326 574.753 444.449 597.08 466.647C598.482 468.04 599.895 469.569 600.782 471.302C602.846 475.332 602.107 479.174 598.771 482.19C595.438 485.204 591.564 485.49 587.736 483.11C586.205 482.158 584.927 480.766 583.631 479.476C560.488 456.436 537.416 433.324 514.172 410.387C510.321 406.586 508.729 402.571 508.756 397.134C508.946 359.145 508.919 321.154 508.779 283.164C508.761 278.3 510.213 274.682 513.672 271.237C555.816 229.257 597.849 187.166 640.161 144.854ZM697.494 84.5152C692.542 87.4471 690.998 91.9964 692.024 97.3224C692.918 101.959 696.112 104.869 700.66 106.035C705.298 107.224 709.212 105.692 712.255 102.122C715.74 98.0337 715.915 92.1608 712.87 87.7805C709.754 83.2989 704.804 82.0881 697.494 84.5152Z" fill="#3FA7A5"/>
<path d="M626.055 223.748C638.085 211.719 649.836 199.911 661.676 188.192C663.619 186.268 664.298 184.823 663.262 181.812C659.119 169.773 661.261 158.58 670.391 149.6C679.396 140.743 690.498 138.845 702.265 143.174C714.248 147.583 720.428 156.914 721.624 169.313C723.658 190.396 702.38 206.494 681.664 199.633C678.559 198.605 676.75 198.953 674.404 201.305C637.111 238.693 599.724 275.986 562.273 313.216C559.857 315.618 558.727 317.948 558.782 321.433C558.995 334.924 558.735 348.422 558.997 361.911C559.042 364.223 560.201 367.072 561.82 368.711C583.362 390.517 605.079 412.149 626.744 433.835C628.036 435.128 629.43 436.378 630.453 437.87C632.842 441.352 632.451 446.579 629.535 449.397C626.348 452.478 622.559 453.192 618.56 451.11C617.123 450.362 615.875 449.159 614.709 447.995C591.954 425.279 569.302 402.46 546.421 379.871C542.068 375.573 540.133 371.027 540.242 364.907C540.535 348.586 540.414 332.256 540.295 315.93C540.263 311.495 541.579 308.085 544.82 304.869C571.9 277.998 598.83 250.975 626.055 223.748ZM697.77 181.14C702.498 177.73 704.105 173.106 702.444 167.621C701.019 162.915 697.462 160.281 692.64 159.615C687.725 158.935 682.923 161.621 680.879 166.167C678.799 170.795 679.259 175.235 682.64 179.139C686.168 183.211 691.052 183.958 697.77 181.14Z" fill="#3FA7A5"/>
<path d="M648.293 291.986C630.619 309.66 613.195 327.083 595.699 344.579C603.39 352.337 610.845 359.888 618.335 367.405C628.214 377.319 638.133 387.196 648.012 397.111C652.748 401.865 653.153 407.143 649.157 411.091C645.195 415.005 639.663 414.727 635.03 410.111C615.909 391.062 596.836 371.965 577.775 352.857C571.804 346.872 571.794 342.247 577.849 336.197C604.368 309.699 630.947 283.261 657.475 256.771C684.241 230.045 710.947 203.257 737.764 176.582C740.141 174.218 740.811 172.448 739.518 168.979C733.54 152.944 742.958 134.989 759.441 130.209C776.583 125.237 793.553 135.442 797.442 153.061C801.126 169.753 789.626 186.531 772.497 188.701C767.871 189.287 762.844 188.693 758.323 187.461C754.857 186.516 752.997 187.187 750.654 189.538C716.667 223.654 682.595 257.685 648.293 291.986ZM769.741 170.711C774.961 169.952 778.03 166.805 779.314 161.855C780.465 157.419 778.974 153.643 775.791 150.578C772.068 146.991 766.252 146.442 761.97 149.051C757.53 151.755 755.249 157.062 756.467 161.852C757.985 167.824 761.835 170.576 769.741 170.711Z" fill="#3FA7A5"/>
<path d="M232.273 79.0636C241.89 65.1764 257.999 60.6775 271.869 67.7594C285.574 74.757 291.508 90.2231 286.031 105.613C284.879 108.849 286.616 110.13 288.326 111.841C317.78 141.3 347.203 170.791 376.741 200.166C379.921 203.329 381.464 206.648 381.453 211.16C381.352 250.819 381.415 290.477 381.34 330.136C381.335 332.564 381.09 335.254 380.038 337.363C378.028 341.393 374.294 342.775 369.912 341.788C365.654 340.829 363.404 337.884 363.07 333.645C362.835 330.664 363.013 327.65 363.013 324.65C363.012 288.658 363.056 252.665 362.907 216.673C362.898 214.474 361.953 211.693 360.445 210.173C331.693 181.192 302.792 152.359 273.918 123.5C273.334 122.916 272.697 122.385 272.098 121.841C258.152 127.073 245.484 125.89 235.169 114.316C226.697 104.809 225.737 92.0622 232.273 79.0636ZM265.92 85.8209C257.916 80.7502 249.037 83.2763 246.875 91.2393C245.383 96.7324 247.636 102.206 252.501 104.907C257.433 107.647 263.149 106.583 266.915 102.225C270.974 97.5275 270.828 92.2069 265.92 85.8209Z" fill="#3FA7A5"/>
<path d="M306.121 97.1008C311.874 83.078 323.668 75.5176 337.463 76.7196C350.93 77.8931 361.707 87.1567 364.2 100.965C365.105 105.98 364.407 111.625 363.035 116.595C362.059 120.131 362.702 121.877 365.03 124.183C388.335 147.278 411.477 170.538 434.858 193.556C439.083 197.716 441.025 202.055 440.974 208.049C440.735 236.03 440.903 264.013 440.846 291.995C440.83 300.345 434.895 305.201 428.098 302.542C423.133 300.599 422.009 296.389 422.015 291.59C422.03 277.599 422.02 263.608 422.02 249.617C422.02 236.625 422.128 223.632 421.908 210.644C421.873 208.611 420.856 206.097 419.432 204.66C396.802 181.833 374.058 159.118 351.217 136.503C350.024 135.323 347.42 134.347 345.987 134.823C334.058 138.788 323.133 137.286 313.935 128.647C304.86 120.123 302.806 109.358 306.121 97.1008ZM342.304 115.595C346.61 110.768 347.559 106.214 345.127 101.586C342.716 96.9953 338.843 94.8139 333.691 95.1651C328.641 95.5092 324.622 98.9252 323.377 103.91C322.175 108.721 323.529 112.935 327.411 115.927C332.001 119.465 336.918 119.444 342.304 115.595Z" fill="#3FA7A5"/>
<path d="M50.8604 797.663C47.4761 804.392 44.2557 810.765 41.0353 817.138C40.2922 817.129 39.5491 817.12 38.8061 817.111C35.2505 810.195 31.695 803.279 28.1394 796.363C27.7144 796.412 27.2893 796.461 26.8642 796.51C26.8642 801.473 27.034 806.444 26.7685 811.392C26.6802 813.038 25.4749 814.624 24.7802 816.237C23.8732 814.604 22.2364 812.994 22.1825 811.333C21.9132 803.022 21.988 794.696 22.1142 786.378C22.1416 784.568 22.8756 782.769 24.0263 780.829C31.6282 788.678 34.1732 799.258 40.2204 808.251C44.2724 800.15 48.0514 792.404 52.0481 784.773C52.7922 783.352 54.4112 782.39 55.6264 781.216C56.3109 782.862 57.5489 784.496 57.5871 786.157C57.7861 794.805 57.7867 803.463 57.5732 812.11C57.5381 813.532 56.0957 814.919 55.3036 816.322C54.4575 814.914 52.9607 813.541 52.8816 812.091C52.5892 806.732 52.7653 801.347 52.7653 794.738C51.6881 796.328 51.3562 796.817 50.8604 797.663Z" fill="#3FA7A5"/>
<path d="M472.719 816.523C462.356 814.995 456.423 809.453 455.604 800.885C454.811 792.589 459.265 784.93 466.747 782.312C473.959 779.789 480.394 781.141 485.907 786.699C491.225 792.061 492.046 798.388 489.596 805.049C486.861 812.485 481.063 816.2 472.719 816.523ZM478.15 786.804C470.689 784.824 465.165 786.706 461.798 792.377C459.311 796.567 459.906 803.268 463.033 806.882C466.783 811.216 471.475 812.715 476.916 811.122C481.968 809.644 484.886 806.034 485.738 800.837C486.753 794.646 484.178 790.24 478.15 786.804Z" fill="#3FA7A5"/>
<path d="M964.684 791.626C964.684 798.439 964.775 804.767 964.623 811.089C964.583 812.74 963.785 814.372 963.335 816.013C961.738 815.115 959.687 814.581 958.618 813.256C953.326 806.694 948.301 799.916 943.156 793.235C942.685 792.624 942.026 792.157 940.684 790.904C940.684 798.339 940.828 804.898 940.583 811.443C940.522 813.081 939.211 814.673 938.474 816.286C937.665 814.717 936.202 813.166 936.158 811.576C935.926 803.092 935.968 794.598 936.12 786.111C936.149 784.506 937.105 782.918 937.634 781.322C939.173 782.352 941.082 783.085 942.19 784.462C947.785 791.416 953.172 798.538 959.754 805.502C959.754 800.844 959.417 796.153 959.865 791.539C960.202 788.055 957.577 781.794 962.15 781.705C967.06 781.609 963.664 787.86 964.684 791.626Z" fill="#3FA7A5"/>
<path d="M656.602 801.195C656.602 795.58 656.453 790.411 656.708 785.261C656.772 783.95 658.122 782.702 658.881 781.425C659.764 782.731 661.378 784.019 661.412 785.347C661.638 794.333 661.595 803.328 661.46 812.317C661.44 813.627 660.463 814.922 659.929 816.223C658.609 815.477 656.918 815.032 656.029 813.936C650.083 806.613 644.307 799.152 638.052 791.194C636.456 799.853 638.939 808.463 636.511 816.495C635.825 816.599 635.14 816.702 634.455 816.806C633.888 815.234 632.86 813.67 632.832 812.089C632.672 803.267 632.68 794.439 632.829 785.616C632.853 784.196 633.877 782.793 634.438 781.382C635.778 782.161 637.494 782.639 638.398 783.768C644.288 791.125 650.002 798.624 656.602 807.145C656.602 804.623 656.602 803.136 656.602 801.195Z" fill="#3FA7A5"/>
<path d="M716.251 816.33C707.103 813.243 702.008 807.005 701.786 799.026C701.59 792.015 706.583 784.723 713.565 782.232C718.602 780.435 723.715 780.386 728.282 783.516C729.641 784.447 730.299 786.404 731.278 787.892C729.538 787.842 727.545 788.329 726.101 787.649C719.863 784.713 714.365 785.496 709.908 790.38C706.177 794.467 705.619 800.937 708.598 805.56C711.877 810.65 718.35 813.002 723.786 811.08C726.973 809.952 727.069 809.668 726.389 802.743C724.663 802.743 722.817 803.024 721.124 802.636C720.128 802.409 719.375 801.12 718.513 800.309C719.274 799.586 719.992 798.306 720.804 798.243C723.595 798.027 726.424 798.164 729.228 798.333C729.928 798.376 730.851 798.877 731.227 799.455C734.105 803.892 730.986 813.652 725.926 815.23C722.998 816.143 719.759 816.059 716.251 816.33Z" fill="#3FA7A5"/>
<path d="M556.404 809.267C551.007 816.385 543.676 817.19 535.989 816.385C534.816 816.262 532.978 814.103 532.942 812.844C532.673 803.358 532.699 793.861 532.874 784.372C532.895 783.278 534.19 781.599 535.254 781.231C542.114 778.86 552.384 782.595 557.021 788.883C560.964 794.23 560.792 802.512 556.404 809.267ZM541.01 785.768C539.9 786.515 537.851 787.233 537.827 788.014C537.587 795.777 537.681 803.55 537.681 811.271C547.863 812.367 553.901 808.481 554.904 800.492C555.901 792.54 550.942 786.94 541.01 785.768Z" fill="#3FA7A5"/>
<path d="M241.495 796.519C242.962 796.527 244.071 796.265 244.932 796.613C245.98 797.038 246.82 797.977 247.75 798.694C246.72 799.507 245.737 800.939 244.652 801.021C240.856 801.31 237.024 801.133 232.944 801.133C232.944 804.624 232.944 807.877 232.944 811.673C238.087 811.673 243.201 811.482 248.286 811.789C249.832 811.882 251.295 813.347 252.796 814.184C251.405 814.987 250.045 816.414 248.619 816.482C242.969 816.749 237.296 816.497 231.636 816.632C228.771 816.7 227.754 815.361 227.758 812.743C227.77 803.416 227.626 794.084 227.92 784.766C227.961 783.472 230.064 781.24 231.324 781.158C237.295 780.772 243.311 780.842 249.296 781.092C250.558 781.144 251.761 782.632 252.99 783.458C251.707 784.231 250.453 785.607 249.135 785.671C243.823 785.926 238.492 785.777 232.925 785.777C232.925 789.264 232.925 792.54 232.925 796.519C235.522 796.519 238.275 796.519 241.495 796.519Z" fill="#3FA7A5"/>
<path d="M171.587 815.199C168.625 817.167 167.429 816.033 167.423 813.089C167.406 803.593 167.344 794.096 167.51 784.603C167.53 783.458 168.834 782.336 169.543 781.204C170.44 782.37 171.97 783.465 172.111 784.718C172.479 787.962 172.235 791.276 172.235 796.006C176.266 792.042 179.37 788.995 182.469 785.942C183.537 784.889 184.435 783.539 185.697 782.845C186.921 782.171 188.512 782.164 189.942 781.863C189.684 783.282 189.905 785.139 189.081 786.04C185.834 789.591 182.259 792.841 178.529 796.472C182.237 801.529 185.832 806.2 189.12 811.078C189.943 812.299 189.777 814.187 190.065 815.768C188.481 815.155 186.355 814.989 185.41 813.847C181.95 809.664 178.882 805.155 174.845 799.648C173.787 802.18 172.651 803.969 172.323 805.896C171.825 808.821 171.888 811.841 171.587 815.199Z" fill="#3FA7A5"/>
<path d="M877.318 806.341C879.301 810.851 882.647 812.44 886.788 811.293C890.748 810.197 892.402 806.939 892.416 802.904C892.437 797.085 892.267 791.258 892.534 785.451C892.598 784.056 894.063 782.725 894.884 781.365C895.665 782.731 897.091 784.084 897.118 785.465C897.248 792.101 897.284 798.765 896.806 805.379C896.337 811.857 891.258 816.327 884.946 816.582C879.048 816.821 873.379 812.767 872.658 806.539C871.803 799.154 871.936 791.643 871.929 784.186C871.928 783.193 873.623 782.198 874.533 781.205C875.248 782.325 876.53 783.417 876.587 784.57C876.937 791.689 877.012 798.821 877.318 806.341Z" fill="#3FA7A5"/>
<path d="M128.728 813.5C127.686 817.818 125.834 817.071 124.37 814.324C122.752 811.288 121.652 807.976 120.245 804.586C119.254 804.586 118.267 804.592 117.279 804.585C108.857 804.523 108.975 804.572 105.702 812.359C105.057 813.893 103.11 814.88 101.763 816.119C101.672 814.359 101.03 812.398 101.582 810.87C104.667 802.333 107.958 793.866 111.39 785.462C112.041 783.866 113.645 782.659 114.809 781.272C115.855 782.615 117.277 783.807 117.886 785.325C121.582 794.545 125.093 803.839 128.728 813.5ZM115.137 799.699C117.034 799.828 118.496 799.595 117.47 797.087C116.687 795.175 115.959 793.24 114.804 790.284C113.509 793.309 112.431 795.421 111.804 797.66C111.686 798.08 113.376 799.006 115.137 799.699Z" fill="#3FA7A5"/>
<path d="M399.36 811.318C403.211 810.685 406.657 809.817 410.151 809.253C411.369 809.056 412.708 809.614 413.992 809.827C413.491 811.037 413.335 812.697 412.436 813.387C405.673 818.572 395.566 817.279 389.508 810.641C383.414 803.963 383.338 794.015 389.329 787.051C394.835 780.651 405.213 779.044 411.767 783.807C412.962 784.676 413.43 786.543 414.234 787.949C412.628 787.955 410.79 788.48 409.453 787.884C401.457 784.317 393.872 786.402 390.843 793.259C387.566 800.676 390.709 807.61 399.36 811.318Z" fill="#3FA7A5"/>
<path d="M809.029 788.798C809.087 780.945 809.087 780.942 816.46 780.942C821.114 780.943 825.778 780.783 830.415 781.072C831.661 781.149 832.821 782.607 834.021 783.431C832.75 784.219 831.508 785.623 830.201 785.688C824.949 785.949 819.677 785.796 814.157 785.796C814.157 789.65 814.157 792.901 814.157 796.506C818.156 796.506 822.136 796.386 826.099 796.59C827.1 796.641 828.047 797.73 829.018 798.343C828.092 799.281 827.223 800.949 826.229 801.029C822.296 801.342 818.324 801.157 813.885 801.157C813.885 804.754 814.15 807.891 813.785 810.953C813.567 812.79 812.364 814.509 811.604 816.281C810.746 814.423 809.224 812.592 809.147 810.702C808.853 803.567 809.029 796.412 809.029 788.798Z" fill="#3FA7A5"/>
<path d="M293.563 796.552C289.946 791.477 290.029 787.667 293.57 783.78C296.297 780.786 301.161 780.191 304.914 782.647C307.107 784.081 309.39 785.781 307.067 789.293C305.975 788.821 304.998 788.297 303.959 787.971C302.048 787.373 300.035 786.355 298.196 786.58C297.224 786.698 295.52 789.625 295.9 790.309C296.904 792.116 298.62 793.982 300.494 794.761C305.235 796.73 308.942 799.268 309.578 804.815C310.078 809.181 307.012 814.078 302.614 815.824C298.314 817.53 292.562 815.928 290.222 812.132C289.646 811.198 289.877 809.766 289.738 808.562C291.004 808.726 292.332 808.704 293.524 809.094C295.628 809.782 297.796 811.609 299.664 811.302C301.478 811.004 304.175 808.699 304.271 807.138C304.404 805.001 302.934 802.205 301.257 800.662C299.277 798.84 296.345 798.052 293.563 796.552Z" fill="#3FA7A5"/>
<path d="M598.711 801.549C598.709 805.877 598.848 809.715 598.612 813.531C598.549 814.549 597.342 815.498 596.659 816.478C595.737 815.509 594.035 814.558 594.013 813.569C593.797 803.749 593.781 793.923 593.959 784.102C593.977 783.129 595.656 782.186 596.564 781.229C597.279 782.341 598.566 783.431 598.611 784.57C598.828 790.056 598.71 795.556 598.711 801.549Z" fill="#3FA7A5"/>
</svg>
